<svg width="393" height="223" viewBox="0 0 393 223" fill="none" xmlns="http://www.w3.org/2000/svg">
<path d="M281.392 0.0900233C265.718 0.0740802 250.218 3.37696 235.912 9.78138C221.606 16.1858 208.818 25.5466 198.39 37.248C197.495 38.144 195.972 38.144 195.167 37.248C180.142 20.4434 160.368 8.59731 138.463 3.27757C116.557 -2.04216 93.5528 -0.58478 72.4939 7.45685C51.4349 15.4985 33.3142 29.7452 20.53 48.3117C7.74576 66.8781 0.900696 88.8889 0.900696 111.431C0.900696 133.973 7.74576 155.984 20.53 174.55C33.3142 193.117 51.4349 207.364 72.4939 215.405C93.5528 223.447 116.557 224.904 138.463 219.584C160.368 214.265 180.142 202.419 195.167 185.614C196.062 184.539 197.495 184.539 198.39 185.614C210.762 199.466 226.403 210.002 243.889 216.261C261.375 222.521 280.149 224.305 298.501 221.451C316.853 218.597 334.199 211.196 348.959 199.922C363.718 188.649 375.422 173.86 383.003 156.905C390.584 139.951 393.801 121.368 392.362 102.851C390.923 84.3347 384.872 66.4726 374.763 50.8927C364.653 35.3129 350.805 22.5107 334.481 13.6528C318.157 4.79487 299.876 0.162924 281.303 0.179023M281.303 169.407C273.441 169.337 265.674 167.674 258.472 164.519C251.27 161.365 244.782 156.783 239.399 151.052C236.533 148.008 232.952 143.71 228.923 140.128C227.072 138.457 225.222 136.905 223.371 135.472C215.599 129.876 206.265 126.866 196.689 126.866C187.112 126.866 177.778 129.876 170.006 135.472L164.366 140.128C160.426 143.71 156.844 148.008 153.979 151.052C148.599 156.757 142.122 161.315 134.936 164.454C127.751 167.593 120.005 169.247 112.164 169.318H110.731L106.971 169.049H106.075C91.8428 167.565 78.6658 160.858 69.0906 150.225C59.5154 139.591 54.2219 125.785 54.233 111.476V111.744V111.207V111.476C54.2194 97.1803 59.5004 83.386 69.0572 72.7542C78.6141 62.1224 91.7696 55.4065 105.986 53.902H106.971L108.493 53.723H110.821L112.164 53.633C119.99 53.7159 127.719 55.3763 134.888 58.515C142.058 61.6537 148.521 66.2061 153.89 71.9C156.845 74.944 160.426 79.242 164.366 82.823C166.217 84.4944 168.097 86.0464 170.007 87.479C177.779 93.0747 187.113 96.0855 196.69 96.0855C206.266 96.0855 215.6 93.0747 223.372 87.479L228.924 82.823C232.953 79.242 236.534 74.943 239.4 71.9C244.78 66.1957 251.257 61.6372 258.442 58.4984C265.628 55.3595 273.373 53.7049 281.214 53.634H282.557L284.885 53.724L286.318 53.813L287.392 53.903C301.011 55.3637 313.669 61.61 323.114 71.5298C332.558 81.4496 338.176 94.3991 338.967 108.073V108.611L339.057 110.222V114.699C338.284 128.403 332.662 141.384 323.198 151.325C313.733 161.265 301.042 167.515 287.393 168.959L286.318 169.049L284.885 169.229H282.557L281.303 169.407Z" fill="url(#paint0_linear_3_6)"/>
<defs>
<linearGradient id="paint0_linear_3_6" x1="40.9804" y1="-10.476" x2="366.275" y2="242.561" gradientUnits="userSpaceOnUse">
<stop offset="1" stop-color="white"/>
</linearGradient>
</defs>
</svg>